<mxfile host="app.diagrams.net" modified="2022-10-21T08:57:57.618Z" agent="5.0 (Windows NT 10.0; Win64; x64) AppleWebKit/537.36 (KHTML, like Gecko) Chrome/106.0.0.0 Safari/537.36" etag="9wB_uFSqLB98L8AiamaS" version="20.4.0" type="github">
  <diagram id="C5RBs43oDa-KdzZeNtuy" name="Page-1">
    <mxGraphModel dx="1483" dy="840" grid="1" gridSize="10" guides="1" tooltips="1" connect="1" arrows="1" fold="1" page="1" pageScale="1" pageWidth="827" pageHeight="1169" math="0" shadow="0">
      <root>
        <mxCell id="WIyWlLk6GJQsqaUBKTNV-0" />
        <mxCell id="WIyWlLk6GJQsqaUBKTNV-1" parent="WIyWlLk6GJQsqaUBKTNV-0" />
        <mxCell id="0zrGArEqf3rOABsjtHun-5" value="" style="edgeStyle=orthogonalEdgeStyle;rounded=0;orthogonalLoop=1;jettySize=auto;html=1;" edge="1" parent="WIyWlLk6GJQsqaUBKTNV-1" source="WIyWlLk6GJQsqaUBKTNV-3" target="0zrGArEqf3rOABsjtHun-4">
          <mxGeometry relative="1" as="geometry" />
        </mxCell>
        <mxCell id="WIyWlLk6GJQsqaUBKTNV-3" value="&lt;div style=&quot;color: rgb(171, 178, 191); background-color: rgb(40, 44, 52); font-family: &amp;quot;JetBrains Mono&amp;quot;, Consolas, &amp;quot;Courier New&amp;quot;, monospace; font-size: 14px; line-height: 19px;&quot;&gt;&lt;span style=&quot;color: #98c379;&quot;&gt;session_stage.cpp handle_event&lt;/span&gt;&lt;/div&gt;" style="rounded=1;whiteSpace=wrap;html=1;fontSize=12;glass=0;strokeWidth=1;shadow=0;" parent="WIyWlLk6GJQsqaUBKTNV-1" vertex="1">
          <mxGeometry x="140" y="140" width="160" height="60" as="geometry" />
        </mxCell>
        <mxCell id="0zrGArEqf3rOABsjtHun-8" value="" style="edgeStyle=orthogonalEdgeStyle;rounded=0;orthogonalLoop=1;jettySize=auto;html=1;" edge="1" parent="WIyWlLk6GJQsqaUBKTNV-1" source="0zrGArEqf3rOABsjtHun-4" target="0zrGArEqf3rOABsjtHun-7">
          <mxGeometry relative="1" as="geometry" />
        </mxCell>
        <mxCell id="0zrGArEqf3rOABsjtHun-4" value="&lt;div style=&quot;color: rgb(171, 178, 191); background-color: rgb(40, 44, 52); font-family: &amp;quot;JetBrains Mono&amp;quot;, Consolas, &amp;quot;Courier New&amp;quot;, monospace; font-size: 14px; line-height: 19px;&quot;&gt;&lt;span style=&quot;color: #98c379;&quot;&gt;plan_cache_stage.cpp handle_event&lt;/span&gt;&lt;/div&gt;" style="whiteSpace=wrap;html=1;rounded=1;glass=0;strokeWidth=1;shadow=0;" vertex="1" parent="WIyWlLk6GJQsqaUBKTNV-1">
          <mxGeometry x="135" y="230" width="170" height="70" as="geometry" />
        </mxCell>
        <mxCell id="0zrGArEqf3rOABsjtHun-11" value="" style="edgeStyle=orthogonalEdgeStyle;rounded=0;orthogonalLoop=1;jettySize=auto;html=1;" edge="1" parent="WIyWlLk6GJQsqaUBKTNV-1" source="0zrGArEqf3rOABsjtHun-7" target="0zrGArEqf3rOABsjtHun-10">
          <mxGeometry relative="1" as="geometry" />
        </mxCell>
        <mxCell id="0zrGArEqf3rOABsjtHun-7" value="&lt;div style=&quot;color: rgb(171, 178, 191); background-color: rgb(40, 44, 52); font-family: &amp;quot;JetBrains Mono&amp;quot;, Consolas, &amp;quot;Courier New&amp;quot;, monospace; font-size: 14px; line-height: 19px;&quot;&gt;&lt;span style=&quot;color: #98c379;&quot;&gt;parse_stage.cpp handle_event&lt;/span&gt;&lt;/div&gt;" style="whiteSpace=wrap;html=1;rounded=1;glass=0;strokeWidth=1;shadow=0;" vertex="1" parent="WIyWlLk6GJQsqaUBKTNV-1">
          <mxGeometry x="130" y="350" width="180" height="75" as="geometry" />
        </mxCell>
        <mxCell id="0zrGArEqf3rOABsjtHun-13" value="" style="edgeStyle=orthogonalEdgeStyle;rounded=0;orthogonalLoop=1;jettySize=auto;html=1;" edge="1" parent="WIyWlLk6GJQsqaUBKTNV-1" source="0zrGArEqf3rOABsjtHun-10" target="0zrGArEqf3rOABsjtHun-12">
          <mxGeometry relative="1" as="geometry" />
        </mxCell>
        <mxCell id="0zrGArEqf3rOABsjtHun-35" style="edgeStyle=orthogonalEdgeStyle;rounded=0;orthogonalLoop=1;jettySize=auto;html=1;exitX=1;exitY=0.25;exitDx=0;exitDy=0;" edge="1" parent="WIyWlLk6GJQsqaUBKTNV-1" source="0zrGArEqf3rOABsjtHun-10">
          <mxGeometry relative="1" as="geometry">
            <mxPoint x="660" y="511" as="targetPoint" />
          </mxGeometry>
        </mxCell>
        <mxCell id="0zrGArEqf3rOABsjtHun-10" value="&lt;div style=&quot;color: rgb(171, 178, 191); background-color: rgb(40, 44, 52); font-family: &amp;quot;JetBrains Mono&amp;quot;, Consolas, &amp;quot;Courier New&amp;quot;, monospace; font-size: 14px; line-height: 19px;&quot;&gt;&lt;span style=&quot;color: #98c379;&quot;&gt;resolve_stage.cpp handle_event&lt;/span&gt;&lt;/div&gt;" style="whiteSpace=wrap;html=1;rounded=1;glass=0;strokeWidth=1;shadow=0;" vertex="1" parent="WIyWlLk6GJQsqaUBKTNV-1">
          <mxGeometry x="145" y="490" width="150" height="82.5" as="geometry" />
        </mxCell>
        <mxCell id="0zrGArEqf3rOABsjtHun-15" value="" style="edgeStyle=orthogonalEdgeStyle;rounded=0;orthogonalLoop=1;jettySize=auto;html=1;" edge="1" parent="WIyWlLk6GJQsqaUBKTNV-1" source="0zrGArEqf3rOABsjtHun-12" target="0zrGArEqf3rOABsjtHun-14">
          <mxGeometry relative="1" as="geometry" />
        </mxCell>
        <mxCell id="0zrGArEqf3rOABsjtHun-23" value="" style="edgeStyle=orthogonalEdgeStyle;rounded=0;orthogonalLoop=1;jettySize=auto;html=1;" edge="1" parent="WIyWlLk6GJQsqaUBKTNV-1" source="0zrGArEqf3rOABsjtHun-12" target="0zrGArEqf3rOABsjtHun-22">
          <mxGeometry relative="1" as="geometry" />
        </mxCell>
        <mxCell id="0zrGArEqf3rOABsjtHun-12" value="&lt;div style=&quot;color: rgb(171, 178, 191); background-color: rgb(40, 44, 52); font-family: &amp;quot;JetBrains Mono&amp;quot;, Consolas, &amp;quot;Courier New&amp;quot;, monospace; font-size: 14px; line-height: 19px;&quot;&gt;&lt;span style=&quot;color: #98c379;&quot;&gt;stmt.cpp create_stmt&lt;/span&gt;&lt;/div&gt;" style="whiteSpace=wrap;html=1;rounded=1;glass=0;strokeWidth=1;shadow=0;" vertex="1" parent="WIyWlLk6GJQsqaUBKTNV-1">
          <mxGeometry x="145" y="606.25" width="150" height="63.75" as="geometry" />
        </mxCell>
        <mxCell id="0zrGArEqf3rOABsjtHun-17" value="" style="edgeStyle=orthogonalEdgeStyle;rounded=0;orthogonalLoop=1;jettySize=auto;html=1;" edge="1" parent="WIyWlLk6GJQsqaUBKTNV-1" source="0zrGArEqf3rOABsjtHun-14" target="0zrGArEqf3rOABsjtHun-16">
          <mxGeometry relative="1" as="geometry" />
        </mxCell>
        <mxCell id="0zrGArEqf3rOABsjtHun-21" style="edgeStyle=orthogonalEdgeStyle;rounded=0;orthogonalLoop=1;jettySize=auto;html=1;exitX=0.75;exitY=0;exitDx=0;exitDy=0;entryX=0.684;entryY=1.025;entryDx=0;entryDy=0;entryPerimeter=0;" edge="1" parent="WIyWlLk6GJQsqaUBKTNV-1" source="0zrGArEqf3rOABsjtHun-14" target="0zrGArEqf3rOABsjtHun-12">
          <mxGeometry relative="1" as="geometry" />
        </mxCell>
        <mxCell id="0zrGArEqf3rOABsjtHun-14" value="&lt;div style=&quot;color: rgb(171, 178, 191); background-color: rgb(40, 44, 52); font-family: &amp;quot;JetBrains Mono&amp;quot;, Consolas, &amp;quot;Courier New&amp;quot;, monospace; font-size: 14px; line-height: 19px;&quot;&gt;&lt;span style=&quot;color: #98c379;&quot;&gt;update_stmt.cpp create&lt;/span&gt;&lt;/div&gt;" style="whiteSpace=wrap;html=1;rounded=1;glass=0;strokeWidth=1;shadow=0;" vertex="1" parent="WIyWlLk6GJQsqaUBKTNV-1">
          <mxGeometry x="150" y="710" width="140" height="61.88" as="geometry" />
        </mxCell>
        <mxCell id="0zrGArEqf3rOABsjtHun-20" style="edgeStyle=orthogonalEdgeStyle;rounded=0;orthogonalLoop=1;jettySize=auto;html=1;exitX=0.75;exitY=0;exitDx=0;exitDy=0;entryX=0.75;entryY=1;entryDx=0;entryDy=0;" edge="1" parent="WIyWlLk6GJQsqaUBKTNV-1" source="0zrGArEqf3rOABsjtHun-16" target="0zrGArEqf3rOABsjtHun-14">
          <mxGeometry relative="1" as="geometry" />
        </mxCell>
        <mxCell id="0zrGArEqf3rOABsjtHun-16" value="&lt;div style=&quot;color: rgb(171, 178, 191); background-color: rgb(40, 44, 52); font-family: &amp;quot;JetBrains Mono&amp;quot;, Consolas, &amp;quot;Courier New&amp;quot;, monospace; font-size: 14px; line-height: 19px;&quot;&gt;&lt;span style=&quot;color: #98c379;&quot;&gt;filter_stmt.cpp create&lt;/span&gt;&lt;/div&gt;" style="whiteSpace=wrap;html=1;rounded=1;glass=0;strokeWidth=1;shadow=0;" vertex="1" parent="WIyWlLk6GJQsqaUBKTNV-1">
          <mxGeometry x="150" y="850" width="140" height="60" as="geometry" />
        </mxCell>
        <mxCell id="0zrGArEqf3rOABsjtHun-25" value="" style="edgeStyle=orthogonalEdgeStyle;rounded=0;orthogonalLoop=1;jettySize=auto;html=1;" edge="1" parent="WIyWlLk6GJQsqaUBKTNV-1" source="0zrGArEqf3rOABsjtHun-22" target="0zrGArEqf3rOABsjtHun-24">
          <mxGeometry relative="1" as="geometry" />
        </mxCell>
        <mxCell id="0zrGArEqf3rOABsjtHun-22" value="&lt;div style=&quot;color: rgb(171, 178, 191); background-color: rgb(40, 44, 52); font-family: &amp;quot;JetBrains Mono&amp;quot;, Consolas, &amp;quot;Courier New&amp;quot;, monospace; font-size: 14px; line-height: 19px;&quot;&gt;&lt;span style=&quot;color: #98c379;&quot;&gt;query_cache_stage.cpp handle_event&lt;/span&gt;&lt;/div&gt;" style="whiteSpace=wrap;html=1;rounded=1;glass=0;strokeWidth=1;shadow=0;" vertex="1" parent="WIyWlLk6GJQsqaUBKTNV-1">
          <mxGeometry x="370" y="600.16" width="190" height="75.94" as="geometry" />
        </mxCell>
        <mxCell id="0zrGArEqf3rOABsjtHun-27" value="" style="edgeStyle=orthogonalEdgeStyle;rounded=0;orthogonalLoop=1;jettySize=auto;html=1;" edge="1" parent="WIyWlLk6GJQsqaUBKTNV-1" source="0zrGArEqf3rOABsjtHun-24" target="0zrGArEqf3rOABsjtHun-26">
          <mxGeometry relative="1" as="geometry" />
        </mxCell>
        <mxCell id="0zrGArEqf3rOABsjtHun-24" value="&lt;div style=&quot;color: rgb(171, 178, 191); background-color: rgb(40, 44, 52); font-family: &amp;quot;JetBrains Mono&amp;quot;, Consolas, &amp;quot;Courier New&amp;quot;, monospace; font-size: 14px; line-height: 19px;&quot;&gt;&lt;span style=&quot;color: #98c379;&quot;&gt;optimize_stage.cpp handle_event&lt;/span&gt;&lt;/div&gt;" style="whiteSpace=wrap;html=1;rounded=1;glass=0;strokeWidth=1;shadow=0;" vertex="1" parent="WIyWlLk6GJQsqaUBKTNV-1">
          <mxGeometry x="387.5" y="720" width="155" height="64.07" as="geometry" />
        </mxCell>
        <mxCell id="0zrGArEqf3rOABsjtHun-29" value="" style="edgeStyle=orthogonalEdgeStyle;rounded=0;orthogonalLoop=1;jettySize=auto;html=1;" edge="1" parent="WIyWlLk6GJQsqaUBKTNV-1" source="0zrGArEqf3rOABsjtHun-26" target="0zrGArEqf3rOABsjtHun-28">
          <mxGeometry relative="1" as="geometry" />
        </mxCell>
        <mxCell id="0zrGArEqf3rOABsjtHun-26" value="&lt;div style=&quot;color: rgb(171, 178, 191); background-color: rgb(40, 44, 52); font-family: &amp;quot;JetBrains Mono&amp;quot;, Consolas, &amp;quot;Courier New&amp;quot;, monospace; font-size: 14px; line-height: 19px;&quot;&gt;&lt;span style=&quot;color: #98c379;&quot;&gt;execute_stage.cpp handle_event&lt;/span&gt;&lt;/div&gt;" style="whiteSpace=wrap;html=1;rounded=1;glass=0;strokeWidth=1;shadow=0;" vertex="1" parent="WIyWlLk6GJQsqaUBKTNV-1">
          <mxGeometry x="405" y="819.9949999999999" width="120" height="60" as="geometry" />
        </mxCell>
        <mxCell id="0zrGArEqf3rOABsjtHun-31" value="" style="edgeStyle=orthogonalEdgeStyle;rounded=0;orthogonalLoop=1;jettySize=auto;html=1;" edge="1" parent="WIyWlLk6GJQsqaUBKTNV-1" source="0zrGArEqf3rOABsjtHun-28" target="0zrGArEqf3rOABsjtHun-30">
          <mxGeometry relative="1" as="geometry" />
        </mxCell>
        <mxCell id="0zrGArEqf3rOABsjtHun-28" value="&lt;div style=&quot;color: rgb(171, 178, 191); background-color: rgb(40, 44, 52); font-family: &amp;quot;JetBrains Mono&amp;quot;, Consolas, &amp;quot;Courier New&amp;quot;, monospace; font-size: 14px; line-height: 19px;&quot;&gt;&lt;span style=&quot;color: #98c379;&quot;&gt;execute_stage.cpp handle_request&lt;/span&gt;&lt;/div&gt;" style="whiteSpace=wrap;html=1;rounded=1;glass=0;strokeWidth=1;shadow=0;" vertex="1" parent="WIyWlLk6GJQsqaUBKTNV-1">
          <mxGeometry x="405" y="959.9949999999999" width="120" height="60" as="geometry" />
        </mxCell>
        <mxCell id="0zrGArEqf3rOABsjtHun-33" value="" style="edgeStyle=orthogonalEdgeStyle;rounded=0;orthogonalLoop=1;jettySize=auto;html=1;" edge="1" parent="WIyWlLk6GJQsqaUBKTNV-1" source="0zrGArEqf3rOABsjtHun-30" target="0zrGArEqf3rOABsjtHun-32">
          <mxGeometry relative="1" as="geometry" />
        </mxCell>
        <mxCell id="0zrGArEqf3rOABsjtHun-30" value="&lt;div style=&quot;color: rgb(171, 178, 191); background-color: rgb(40, 44, 52); font-family: &amp;quot;JetBrains Mono&amp;quot;, Consolas, &amp;quot;Courier New&amp;quot;, monospace; font-size: 14px; line-height: 19px;&quot;&gt;&lt;span style=&quot;color: #98c379;&quot;&gt;execute_stage.cpp do_update&lt;/span&gt;&lt;/div&gt;" style="whiteSpace=wrap;html=1;rounded=1;glass=0;strokeWidth=1;shadow=0;" vertex="1" parent="WIyWlLk6GJQsqaUBKTNV-1">
          <mxGeometry x="405" y="1099.995" width="120" height="60" as="geometry" />
        </mxCell>
        <mxCell id="0zrGArEqf3rOABsjtHun-34" style="edgeStyle=orthogonalEdgeStyle;rounded=0;orthogonalLoop=1;jettySize=auto;html=1;exitX=1;exitY=0;exitDx=0;exitDy=0;entryX=1;entryY=0.5;entryDx=0;entryDy=0;" edge="1" parent="WIyWlLk6GJQsqaUBKTNV-1" source="0zrGArEqf3rOABsjtHun-32" target="0zrGArEqf3rOABsjtHun-10">
          <mxGeometry relative="1" as="geometry">
            <Array as="points">
              <mxPoint x="500" y="1250" />
              <mxPoint x="500" y="531" />
            </Array>
          </mxGeometry>
        </mxCell>
        <mxCell id="0zrGArEqf3rOABsjtHun-32" value="&#xa;&lt;div style=&quot;color: rgb(171, 178, 191); background-color: rgb(40, 44, 52); font-family: &amp;quot;JetBrains Mono&amp;quot;, Consolas, &amp;quot;Courier New&amp;quot;, monospace; font-weight: normal; font-size: 14px; line-height: 19px;&quot;&gt;&lt;div&gt;&lt;span style=&quot;color: #98c379;&quot;&gt;record_manager.cpp init 105&lt;/span&gt;&lt;span style=&quot;color: #abb2bf;&quot;&gt;]&lt;/span&gt;&lt;span style=&quot;color: #c678dd;&quot;&gt;&amp;gt;&lt;/span&gt;&lt;span style=&quot;color: #ffffff;&quot;&gt;&amp;gt;Successfully init page_num 1.&lt;/span&gt;&lt;/div&gt;&lt;/div&gt;&#xa;&#xa;" style="whiteSpace=wrap;html=1;rounded=1;glass=0;strokeWidth=1;shadow=0;" vertex="1" parent="WIyWlLk6GJQsqaUBKTNV-1">
          <mxGeometry x="308.75" y="1250" width="312.5" height="70" as="geometry" />
        </mxCell>
        <mxCell id="0zrGArEqf3rOABsjtHun-38" value="" style="edgeStyle=orthogonalEdgeStyle;rounded=0;orthogonalLoop=1;jettySize=auto;html=1;" edge="1" parent="WIyWlLk6GJQsqaUBKTNV-1" source="0zrGArEqf3rOABsjtHun-36" target="0zrGArEqf3rOABsjtHun-37">
          <mxGeometry relative="1" as="geometry" />
        </mxCell>
        <mxCell id="0zrGArEqf3rOABsjtHun-36" value="&lt;div style=&quot;color: rgb(171, 178, 191); background-color: rgb(40, 44, 52); font-family: &amp;quot;JetBrains Mono&amp;quot;, Consolas, &amp;quot;Courier New&amp;quot;, monospace; font-size: 14px; line-height: 19px;&quot;&gt;&lt;div style=&quot;line-height: 19px;&quot;&gt;&lt;span style=&quot;color: #98c379;&quot;&gt;parse_stage.cpp callback_event&lt;/span&gt;&lt;/div&gt;&lt;/div&gt;" style="whiteSpace=wrap;html=1;rounded=1;glass=0;strokeWidth=1;shadow=0;" vertex="1" parent="WIyWlLk6GJQsqaUBKTNV-1">
          <mxGeometry x="660" y="470" width="150" height="82.5" as="geometry" />
        </mxCell>
        <mxCell id="0zrGArEqf3rOABsjtHun-37" value="&lt;div style=&quot;color: rgb(171, 178, 191); background-color: rgb(40, 44, 52); font-family: &amp;quot;JetBrains Mono&amp;quot;, Consolas, &amp;quot;Courier New&amp;quot;, monospace; font-size: 14px; line-height: 19px;&quot;&gt;&lt;span style=&quot;color: #98c379;&quot;&gt;session_stage.cpp callback_event&lt;/span&gt;&lt;/div&gt;" style="whiteSpace=wrap;html=1;rounded=1;glass=0;strokeWidth=1;shadow=0;" vertex="1" parent="WIyWlLk6GJQsqaUBKTNV-1">
          <mxGeometry x="652.5" y="640" width="165" height="56.25" as="geometry" />
        </mxCell>
      </root>
    </mxGraphModel>
  </diagram>
</mxfile>
